<svg width="38" height="38" viewBox="0 0 38 38" fill="none" xmlns="http://www.w3.org/2000/svg">
<path d="M19.0001 29.0833C23.2717 29.0833 26.8834 26.4066 28.3684 22.6666H9.63175C11.0984 26.4066 14.7284 29.0833 19.0001 29.0833ZM12.5834 17.1666C13.3128 17.1666 14.0122 16.8769 14.528 16.3612C15.0437 15.8454 15.3334 15.146 15.3334 14.4166C15.3334 13.6873 15.0437 12.9878 14.528 12.4721C14.0122 11.9564 13.3128 11.6666 12.5834 11.6666C11.8541 11.6666 11.1546 11.9564 10.6389 12.4721C10.1231 12.9878 9.83341 13.6873 9.83341 14.4166C9.83341 15.146 10.1231 15.8454 10.6389 16.3612C11.1546 16.8769 11.8541 17.1666 12.5834 17.1666ZM25.4167 17.1666C26.1461 17.1666 26.8456 16.8769 27.3613 16.3612C27.877 15.8454 28.1667 15.146 28.1667 14.4166C28.1667 13.6873 27.877 12.9878 27.3613 12.4721C26.8456 11.9564 26.1461 11.6666 25.4167 11.6666C24.6874 11.6666 23.9879 11.9564 23.4722 12.4721C22.9565 12.9878 22.6667 13.6873 22.6667 14.4166C22.6667 15.146 22.9565 15.8454 23.4722 16.3612C23.9879 16.8769 24.6874 17.1666 25.4167 17.1666V17.1666ZM19.0001 33.6666C15.1102 33.6666 11.3797 32.1214 8.62918 29.3709C5.87865 26.6203 4.33341 22.8898 4.33341 19C4.33341 15.1101 5.87865 11.3796 8.62918 8.62906C11.3797 5.87853 15.1102 4.33329 19.0001 4.33329C22.8899 4.33329 26.6204 5.87853 29.371 8.62906C32.1215 11.3796 33.6667 15.1101 33.6667 19C33.6667 22.8898 32.1215 26.6203 29.371 29.3709C26.6204 32.1214 22.8899 33.6666 19.0001 33.6666V33.6666ZM19.0001 0.666626C8.86175 0.666626 0.666748 8.91663 0.666748 19C0.666748 23.8623 2.59829 28.5254 6.03646 31.9636C7.73886 33.666 9.75992 35.0164 11.9842 35.9378C14.2085 36.8591 16.5925 37.3333 19.0001 37.3333C23.8624 37.3333 28.5255 35.4018 31.9637 31.9636C35.4019 28.5254 37.3334 23.8623 37.3334 19C37.3334 16.5924 36.8592 14.2084 35.9379 11.9841C35.0165 9.75979 33.6661 7.73874 31.9637 6.03634C30.2613 4.33393 28.2402 2.9835 26.0159 2.06217C23.7916 1.14083 21.4076 0.666626 19.0001 0.666626V0.666626Z" fill="black"/>
</svg>
