<svg width="36" height="36" viewBox="0 0 36 36" fill="none" xmlns="http://www.w3.org/2000/svg">
<path d="M16.1666 7.00001H21.6666L27.6983 0.950012C27.8687 0.778176 28.0715 0.641787 28.2949 0.548711C28.5183 0.455635 28.7579 0.407715 29 0.407715C29.242 0.407715 29.4816 0.455635 29.705 0.548711C29.9284 0.641787 30.1312 0.778176 30.3016 0.950012L35.0316 5.69834C35.3731 6.04184 35.5648 6.5065 35.5648 6.99084C35.5648 7.47518 35.3731 7.93985 35.0316 8.28334L30.8333 12.5H16.1666V16.1667C16.1666 16.6529 15.9735 17.1192 15.6297 17.463C15.2858 17.8069 14.8195 18 14.3333 18C13.8471 18 13.3808 17.8069 13.0369 17.463C12.6931 17.1192 12.5 16.6529 12.5 16.1667V10.6667C12.5 9.69422 12.8863 8.76159 13.5739 8.07395C14.2615 7.38632 15.1942 7.00001 16.1666 7.00001ZM5.16663 16.1667V23.5L0.968301 27.6983C0.626841 28.0418 0.435181 28.5065 0.435181 28.9908C0.435181 29.4752 0.626841 29.9398 0.968301 30.2833L5.6983 35.0317C5.86873 35.2035 6.0715 35.3399 6.29491 35.433C6.51832 35.5261 6.75795 35.574 6.99997 35.574C7.24199 35.574 7.48162 35.5261 7.70503 35.433C7.92843 35.3399 8.1312 35.2035 8.30163 35.0317L16.1666 27.1667H23.5C23.9862 27.1667 24.4525 26.9735 24.7963 26.6297C25.1401 26.2859 25.3333 25.8196 25.3333 25.3333V23.5H27.1666C27.6529 23.5 28.1192 23.3069 28.463 22.963C28.8068 22.6192 29 22.1529 29 21.6667V19.8333H30.8333C31.3195 19.8333 31.7859 19.6402 32.1297 19.2964C32.4735 18.9526 32.6666 18.4862 32.6666 18V16.1667H19.8333V18C19.8333 18.9725 19.447 19.9051 18.7594 20.5927C18.0717 21.2804 17.1391 21.6667 16.1666 21.6667H12.5C11.5275 21.6667 10.5949 21.2804 9.90724 20.5927C9.21961 19.9051 8.8333 18.9725 8.8333 18V12.5L5.16663 16.1667Z" fill="black"/>
</svg>
