<svg width="34" height="42" viewBox="0 0 34 42" fill="none" xmlns="http://www.w3.org/2000/svg">
<path d="M17 0.833374L0.5 8.16671V19.1667C0.5 29.3417 7.54 38.8567 17 41.1667C26.46 38.8567 33.5 29.3417 33.5 19.1667V8.16671L17 0.833374ZM17 9.41337C17.9167 9.41337 18.7417 10.2017 18.7417 11.155V17.535L28 23.31V25.6384L18.7417 22.7417V29.1034L21.0517 30.845V32.5867L17 31.4134L12.9483 32.5867V30.845L15.2583 29.1034V22.7417L6 25.6384V23.31L15.2583 17.535V11.155C15.2583 10.2017 16.0833 9.41337 17 9.41337Z" fill="black"/>
</svg>
