<svg width="44" height="44" viewBox="0 0 44 44" fill="none" xmlns="http://www.w3.org/2000/svg">
<path d="M17.6061 0L13.2122 4.88889V9.77778H6.62128C4.09478 9.77778 2.49099 12.2222 2.22736 14.6667L0.0303995 39.1111C-0.233236 41.5556 1.21676 44 4.42432 44H39.5757C42.7832 44 44.2332 41.5556 43.9696 39.1111L41.7726 14.6667C41.509 12.2222 39.7075 9.77778 37.3787 9.77778H30.7878V4.88889L26.3939 0H17.6061ZM17.6061 4.88889H26.3939V9.77778H17.6061V4.88889ZM19.803 17.1111H24.197V24.4444H30.7878V29.3333H24.197V36.6667H19.803V29.3333H13.2122V24.4444H19.803V17.1111Z" fill="black"/>
</svg>
