<svg width="41" height="30" viewBox="0 0 41 30" fill="none" xmlns="http://www.w3.org/2000/svg">
<path d="M35.5 7.99996H39.1666V4.33329L35.5 0.666626H4.33329C3.36083 0.666626 2.4282 1.05293 1.74057 1.74057C1.05293 2.4282 0.666626 3.36083 0.666626 4.33329V20.8333C0.666626 21.8058 1.05293 22.7384 1.74057 23.426C2.4282 24.1136 3.36083 24.5 4.33329 24.5H6.16663C6.16663 25.9586 6.74609 27.3576 7.77754 28.389C8.80899 29.4205 10.2079 30 11.6666 30C13.1253 30 14.5243 29.4205 15.5557 28.389C16.5872 27.3576 17.1666 25.9586 17.1666 24.5H26.3333C26.3333 25.9586 26.9128 27.3576 27.9442 28.389C28.9757 29.4205 30.3746 30 31.8333 30C33.292 30 34.6909 29.4205 35.7224 28.389C36.7538 27.3576 37.3333 25.9586 37.3333 24.5H41V15.3333L35.5 7.99996ZM11.6666 27.25C10.9373 27.25 10.2378 26.9602 9.72208 26.4445C9.20636 25.9288 8.91663 25.2293 8.91663 24.5C8.91663 23.7706 9.20636 23.0711 9.72208 22.5554C10.2378 22.0397 10.9373 21.75 11.6666 21.75C12.396 21.75 13.0954 22.0397 13.6112 22.5554C14.1269 23.0711 14.4166 23.7706 14.4166 24.5C14.4166 25.2293 14.1269 25.9288 13.6112 26.4445C13.0954 26.9602 12.396 27.25 11.6666 27.25V27.25ZM15.3333 15.3333H4.33329V9.83329H15.3333V15.3333ZM24.5 20.8333H19V9.83329H24.5V20.8333ZM31.8333 27.25C31.2894 27.25 30.7577 27.0887 30.3055 26.7865C29.8532 26.4843 29.5008 26.0548 29.2926 25.5523C29.0845 25.0498 29.03 24.4969 29.1361 23.9635C29.2422 23.43 29.5042 22.94 29.8887 22.5554C30.2733 22.1708 30.7633 21.9089 31.2968 21.8028C31.8302 21.6967 32.3832 21.7511 32.8857 21.9593C33.3882 22.1674 33.8177 22.5199 34.1198 22.9721C34.422 23.4244 34.5833 23.9561 34.5833 24.5C34.5647 25.2235 34.269 25.9122 33.7573 26.424C33.2455 26.9357 32.5568 27.2314 31.8333 27.25ZM30 15.3333V10.75H34.5833L38.25 15.3333H30Z" fill="black"/>
</svg>
