<svg width="830" height="378" viewBox="0 0 830 378" fill="none" xmlns="http://www.w3.org/2000/svg">
<rect width="830" height="378" rx="10" fill="#EDEDF6"/>
<rect width="830" height="375" rx="10" fill="white"/>
<path d="M630.078 63V53.872H633.368C633.853 53.872 634.306 53.9187 634.726 54.012C635.155 54.1053 635.529 54.264 635.846 54.488C636.163 54.7027 636.415 54.992 636.602 55.356C636.789 55.72 636.882 56.1727 636.882 56.714C636.882 57.386 636.733 57.9413 636.434 58.38C636.145 58.8093 635.753 59.1313 635.258 59.346L637.33 63H635.02L633.27 59.71H632.136V63H630.078ZM632.136 58.072H633.2C633.741 58.072 634.152 57.96 634.432 57.736C634.721 57.5027 634.866 57.162 634.866 56.714C634.866 56.266 634.721 55.9533 634.432 55.776C634.152 55.5987 633.741 55.51 633.2 55.51H632.136V58.072ZM641.607 63.168C641.113 63.168 640.651 63.0887 640.221 62.93C639.792 62.762 639.419 62.524 639.101 62.216C638.784 61.8987 638.537 61.516 638.359 61.068C638.182 60.62 638.093 60.1067 638.093 59.528C638.093 58.968 638.187 58.464 638.373 58.016C638.56 57.5587 638.803 57.176 639.101 56.868C639.409 56.5507 639.759 56.308 640.151 56.14C640.543 55.972 640.949 55.888 641.369 55.888C641.864 55.888 642.293 55.972 642.657 56.14C643.031 56.308 643.339 56.5413 643.581 56.84C643.833 57.1387 644.02 57.4933 644.141 57.904C644.263 58.3053 644.323 58.744 644.323 59.22C644.323 59.4067 644.314 59.584 644.295 59.752C644.277 59.92 644.258 60.046 644.239 60.13H640.081C640.175 60.634 640.38 61.0073 640.697 61.25C641.024 61.4833 641.421 61.6 641.887 61.6C642.382 61.6 642.881 61.446 643.385 61.138L644.071 62.384C643.717 62.6267 643.32 62.818 642.881 62.958C642.452 63.098 642.027 63.168 641.607 63.168ZM640.067 58.772H642.573C642.573 58.38 642.485 58.0627 642.307 57.82C642.13 57.5773 641.831 57.456 641.411 57.456C641.085 57.456 640.795 57.5633 640.543 57.778C640.301 57.9927 640.142 58.324 640.067 58.772ZM647.485 63.168C647.168 63.168 646.878 63.112 646.617 63C646.365 62.8973 646.15 62.7527 645.973 62.566C645.796 62.37 645.656 62.146 645.553 61.894C645.46 61.642 645.413 61.3667 645.413 61.068C645.413 60.34 645.721 59.7707 646.337 59.36C646.953 58.9493 647.947 58.674 649.319 58.534C649.3 58.226 649.207 57.9833 649.039 57.806C648.88 57.6193 648.61 57.526 648.227 57.526C647.928 57.526 647.63 57.582 647.331 57.694C647.042 57.806 646.729 57.96 646.393 58.156L645.651 56.798C646.099 56.5273 646.566 56.308 647.051 56.14C647.546 55.972 648.068 55.888 648.619 55.888C649.515 55.888 650.196 56.1447 650.663 56.658C651.139 57.162 651.377 57.9507 651.377 59.024V63H649.697L649.557 62.286H649.501C649.202 62.5473 648.89 62.762 648.563 62.93C648.236 63.0887 647.877 63.168 647.485 63.168ZM648.185 61.572C648.418 61.572 648.619 61.5207 648.787 61.418C648.955 61.3153 649.132 61.1707 649.319 60.984V59.766C648.591 59.8687 648.087 60.018 647.807 60.214C647.527 60.41 647.387 60.6433 647.387 60.914C647.387 61.138 647.457 61.306 647.597 61.418C647.746 61.5207 647.942 61.572 648.185 61.572ZM655.148 63.168C654.793 63.168 654.494 63.112 654.252 63C654.009 62.888 653.813 62.734 653.664 62.538C653.524 62.3327 653.421 62.09 653.356 61.81C653.29 61.5207 653.258 61.1987 653.258 60.844V53.186H655.316V60.928C655.316 61.1427 655.353 61.292 655.428 61.376C655.512 61.46 655.596 61.502 655.68 61.502C655.726 61.502 655.764 61.502 655.792 61.502C655.829 61.502 655.876 61.4927 655.932 61.474L656.184 63C656.072 63.0467 655.927 63.084 655.75 63.112C655.582 63.1493 655.381 63.168 655.148 63.168ZM660.078 63.168C659.648 63.168 659.28 63.1027 658.972 62.972C658.673 62.8413 658.426 62.6593 658.23 62.426C658.043 62.1927 657.903 61.9127 657.81 61.586C657.726 61.25 657.684 60.8813 657.684 60.48V57.666H656.732V56.14L657.796 56.056L658.034 54.208H659.742V56.056H661.408V57.666H659.742V60.452C659.742 60.844 659.821 61.1287 659.98 61.306C660.148 61.474 660.367 61.558 660.638 61.558C660.75 61.558 660.862 61.544 660.974 61.516C661.095 61.488 661.202 61.4553 661.296 61.418L661.618 62.916C661.431 62.972 661.212 63.028 660.96 63.084C660.708 63.14 660.414 63.168 660.078 63.168ZM662.903 63V56.056H664.961V63H662.903ZM663.925 55.034C663.58 55.034 663.295 54.936 663.071 54.74C662.847 54.5347 662.735 54.2733 662.735 53.956C662.735 53.6387 662.847 53.382 663.071 53.186C663.295 52.99 663.58 52.892 663.925 52.892C664.28 52.892 664.564 52.99 664.779 53.186C665.003 53.382 665.115 53.6387 665.115 53.956C665.115 54.2733 665.003 54.5347 664.779 54.74C664.564 54.936 664.28 55.034 663.925 55.034ZM666.912 63V56.056H668.592L668.732 56.952H668.788C669.077 56.6627 669.385 56.4153 669.712 56.21C670.039 55.9953 670.431 55.888 670.888 55.888C671.383 55.888 671.779 55.9907 672.078 56.196C672.386 56.392 672.629 56.6767 672.806 57.05C673.114 56.7327 673.436 56.462 673.772 56.238C674.117 56.0047 674.523 55.888 674.99 55.888C675.737 55.888 676.283 56.14 676.628 56.644C676.983 57.1387 677.16 57.82 677.16 58.688V63H675.102V58.954C675.102 58.45 675.032 58.1047 674.892 57.918C674.761 57.7313 674.547 57.638 674.248 57.638C673.903 57.638 673.506 57.862 673.058 58.31V63H671V58.954C671 58.45 670.93 58.1047 670.79 57.918C670.659 57.7313 670.445 57.638 670.146 57.638C669.791 57.638 669.399 57.862 668.97 58.31V63H666.912ZM682.164 63.168C681.669 63.168 681.207 63.0887 680.778 62.93C680.349 62.762 679.975 62.524 679.658 62.216C679.341 61.8987 679.093 61.516 678.916 61.068C678.739 60.62 678.65 60.1067 678.65 59.528C678.65 58.968 678.743 58.464 678.93 58.016C679.117 57.5587 679.359 57.176 679.658 56.868C679.966 56.5507 680.316 56.308 680.708 56.14C681.1 55.972 681.506 55.888 681.926 55.888C682.421 55.888 682.85 55.972 683.214 56.14C683.587 56.308 683.895 56.5413 684.138 56.84C684.39 57.1387 684.577 57.4933 684.698 57.904C684.819 58.3053 684.88 58.744 684.88 59.22C684.88 59.4067 684.871 59.584 684.852 59.752C684.833 59.92 684.815 60.046 684.796 60.13H680.638C680.731 60.634 680.937 61.0073 681.254 61.25C681.581 61.4833 681.977 61.6 682.444 61.6C682.939 61.6 683.438 61.446 683.942 61.138L684.628 62.384C684.273 62.6267 683.877 62.818 683.438 62.958C683.009 63.098 682.584 63.168 682.164 63.168ZM680.624 58.772H683.13C683.13 58.38 683.041 58.0627 682.864 57.82C682.687 57.5773 682.388 57.456 681.968 57.456C681.641 57.456 681.352 57.5633 681.1 57.778C680.857 57.9927 680.699 58.324 680.624 58.772Z" fill="#A6ACBE"/>
<ellipse cx="606.5" cy="58" rx="7.5" ry="7" fill="#33D69F"/>
<path d="M744.078 63V53.872H746.136V57.386H749.286V53.872H751.358V63H749.286V59.192H746.136V63H744.078ZM756.466 63.168C756.027 63.168 755.602 63.0887 755.192 62.93C754.781 62.762 754.417 62.524 754.1 62.216C753.792 61.908 753.544 61.53 753.358 61.082C753.171 60.6247 753.078 60.1067 753.078 59.528C753.078 58.9493 753.171 58.436 753.358 57.988C753.544 57.5307 753.792 57.148 754.1 56.84C754.417 56.532 754.781 56.2987 755.192 56.14C755.602 55.972 756.027 55.888 756.466 55.888C756.904 55.888 757.324 55.972 757.726 56.14C758.136 56.2987 758.496 56.532 758.804 56.84C759.121 57.148 759.373 57.5307 759.56 57.988C759.746 58.436 759.84 58.9493 759.84 59.528C759.84 60.1067 759.746 60.6247 759.56 61.082C759.373 61.53 759.121 61.908 758.804 62.216C758.496 62.524 758.136 62.762 757.726 62.93C757.324 63.0887 756.904 63.168 756.466 63.168ZM756.466 61.502C756.886 61.502 757.203 61.3247 757.418 60.97C757.632 60.6153 757.74 60.1347 757.74 59.528C757.74 58.9213 757.632 58.4407 757.418 58.086C757.203 57.7313 756.886 57.554 756.466 57.554C756.036 57.554 755.714 57.7313 755.5 58.086C755.294 58.4407 755.192 58.9213 755.192 59.528C755.192 60.1347 755.294 60.6153 755.5 60.97C755.714 61.3247 756.036 61.502 756.466 61.502ZM763.279 63.168C762.925 63.168 762.626 63.112 762.383 63C762.141 62.888 761.945 62.734 761.795 62.538C761.655 62.3327 761.553 62.09 761.487 61.81C761.422 61.5207 761.389 61.1987 761.389 60.844V53.186H763.447V60.928C763.447 61.1427 763.485 61.292 763.559 61.376C763.643 61.46 763.727 61.502 763.811 61.502C763.858 61.502 763.895 61.502 763.923 61.502C763.961 61.502 764.007 61.4927 764.063 61.474L764.315 63C764.203 63.0467 764.059 63.084 763.881 63.112C763.713 63.1493 763.513 63.168 763.279 63.168ZM768.013 63.168C767.584 63.168 767.192 63.084 766.837 62.916C766.492 62.748 766.193 62.51 765.941 62.202C765.698 61.8847 765.507 61.502 765.367 61.054C765.236 60.606 765.171 60.0973 765.171 59.528C765.171 58.9587 765.25 58.45 765.409 58.002C765.577 57.554 765.792 57.176 766.053 56.868C766.324 56.5507 766.632 56.308 766.977 56.14C767.332 55.972 767.691 55.888 768.055 55.888C768.447 55.888 768.769 55.9533 769.021 56.084C769.273 56.2147 769.52 56.392 769.763 56.616L769.679 55.552V53.186H771.737V63H770.057L769.917 62.314H769.861C769.618 62.5567 769.334 62.762 769.007 62.93C768.68 63.0887 768.349 63.168 768.013 63.168ZM768.545 61.488C768.769 61.488 768.97 61.4413 769.147 61.348C769.334 61.2547 769.511 61.0913 769.679 60.858V58.016C769.492 57.848 769.301 57.7313 769.105 57.666C768.909 57.6007 768.718 57.568 768.531 57.568C768.204 57.568 767.915 57.7267 767.663 58.044C767.411 58.352 767.285 58.8373 767.285 59.5C767.285 60.1907 767.392 60.6947 767.607 61.012C767.831 61.3293 768.144 61.488 768.545 61.488ZM773.7 63V56.056H775.758V63H773.7ZM774.722 55.034C774.377 55.034 774.092 54.936 773.868 54.74C773.644 54.5347 773.532 54.2733 773.532 53.956C773.532 53.6387 773.644 53.382 773.868 53.186C774.092 52.99 774.377 52.892 774.722 52.892C775.077 52.892 775.362 52.99 775.576 53.186C775.8 53.382 775.912 53.6387 775.912 53.956C775.912 54.2733 775.8 54.5347 775.576 54.74C775.362 54.936 775.077 55.034 774.722 55.034ZM777.71 63V56.056H779.39L779.53 56.938H779.586C779.884 56.658 780.211 56.4153 780.566 56.21C780.92 55.9953 781.336 55.888 781.812 55.888C782.568 55.888 783.114 56.1353 783.45 56.63C783.795 57.1247 783.968 57.8107 783.968 58.688V63H781.91V58.954C781.91 58.45 781.84 58.1047 781.7 57.918C781.569 57.7313 781.354 57.638 781.056 57.638C780.794 57.638 780.57 57.6987 780.384 57.82C780.197 57.932 779.992 58.0953 779.768 58.31V63H777.71ZM788.339 65.954C787.929 65.954 787.546 65.9167 787.191 65.842C786.846 65.7767 786.538 65.674 786.267 65.534C786.006 65.394 785.801 65.212 785.651 64.988C785.502 64.764 785.427 64.498 785.427 64.19C785.427 63.63 785.759 63.1633 786.421 62.79V62.734C786.235 62.6127 786.081 62.4587 785.959 62.272C785.838 62.0853 785.777 61.8473 785.777 61.558C785.777 61.306 785.852 61.068 786.001 60.844C786.151 60.6107 786.337 60.4147 786.561 60.256V60.2C786.319 60.032 786.099 59.794 785.903 59.486C785.717 59.1687 785.623 58.8047 785.623 58.394C785.623 57.974 785.703 57.61 785.861 57.302C786.02 56.9847 786.23 56.7233 786.491 56.518C786.762 56.3033 787.07 56.1447 787.415 56.042C787.761 55.9393 788.12 55.888 788.493 55.888C788.904 55.888 789.263 55.944 789.571 56.056H792.105V57.554H790.999C791.065 57.6567 791.116 57.7873 791.153 57.946C791.2 58.1047 791.223 58.2773 791.223 58.464C791.223 58.8653 791.153 59.2153 791.013 59.514C790.873 59.8033 790.677 60.046 790.425 60.242C790.183 60.4287 789.893 60.5687 789.557 60.662C789.231 60.7553 788.876 60.802 788.493 60.802C788.223 60.802 787.943 60.7553 787.653 60.662C787.56 60.7367 787.495 60.8113 787.457 60.886C787.42 60.9607 787.401 61.0587 787.401 61.18C787.401 61.3573 787.476 61.488 787.625 61.572C787.784 61.656 788.059 61.698 788.451 61.698H789.571C790.43 61.698 791.083 61.838 791.531 62.118C791.989 62.3887 792.217 62.8367 792.217 63.462C792.217 63.826 792.124 64.1573 791.937 64.456C791.76 64.764 791.503 65.0253 791.167 65.24C790.831 65.464 790.425 65.6367 789.949 65.758C789.473 65.8887 788.937 65.954 788.339 65.954ZM788.493 59.556C788.764 59.556 788.988 59.4627 789.165 59.276C789.352 59.08 789.445 58.786 789.445 58.394C789.445 58.03 789.352 57.7547 789.165 57.568C788.988 57.372 788.764 57.274 788.493 57.274C788.223 57.274 787.994 57.3673 787.807 57.554C787.63 57.7407 787.541 58.0207 787.541 58.394C787.541 58.786 787.63 59.08 787.807 59.276C787.994 59.4627 788.223 59.556 788.493 59.556ZM788.661 64.666C789.128 64.666 789.511 64.582 789.809 64.414C790.108 64.2553 790.257 64.0547 790.257 63.812C790.257 63.5973 790.164 63.4527 789.977 63.378C789.8 63.3033 789.539 63.266 789.193 63.266H788.479C788.237 63.266 788.041 63.2567 787.891 63.238C787.742 63.2287 787.611 63.21 787.499 63.182C787.247 63.406 787.121 63.6347 787.121 63.868C787.121 64.1293 787.261 64.3253 787.541 64.456C787.821 64.596 788.195 64.666 788.661 64.666ZM795.524 63.168C795.067 63.168 794.595 63.0793 794.11 62.902C793.634 62.7247 793.219 62.4913 792.864 62.202L793.788 60.914C794.105 61.1567 794.409 61.3387 794.698 61.46C794.987 61.5813 795.281 61.642 795.58 61.642C795.888 61.642 796.112 61.5907 796.252 61.488C796.392 61.3853 796.462 61.2407 796.462 61.054C796.462 60.942 796.42 60.844 796.336 60.76C796.261 60.6667 796.154 60.5827 796.014 60.508C795.883 60.4333 795.734 60.368 795.566 60.312C795.398 60.2467 795.225 60.1767 795.048 60.102C794.833 60.018 794.619 59.92 794.404 59.808C794.189 59.696 793.993 59.5607 793.816 59.402C793.639 59.234 793.494 59.0427 793.382 58.828C793.27 58.604 793.214 58.3473 793.214 58.058C793.214 57.7407 793.275 57.4467 793.396 57.176C793.527 56.9053 793.709 56.6767 793.942 56.49C794.175 56.3033 794.455 56.1587 794.782 56.056C795.109 55.944 795.473 55.888 795.874 55.888C796.406 55.888 796.873 55.9813 797.274 56.168C797.675 56.3453 798.025 56.546 798.324 56.77L797.4 58.002C797.148 57.8153 796.901 57.6707 796.658 57.568C796.415 57.4653 796.173 57.414 795.93 57.414C795.407 57.414 795.146 57.596 795.146 57.96C795.146 58.072 795.183 58.17 795.258 58.254C795.333 58.3287 795.431 58.3987 795.552 58.464C795.683 58.5293 795.827 58.5947 795.986 58.66C796.154 58.716 796.327 58.7767 796.504 58.842C796.728 58.926 796.947 59.024 797.162 59.136C797.386 59.2387 797.587 59.3693 797.764 59.528C797.951 59.6867 798.1 59.8827 798.212 60.116C798.324 60.34 798.38 60.6107 798.38 60.928C798.38 61.2453 798.319 61.5393 798.198 61.81C798.077 62.0807 797.895 62.3187 797.652 62.524C797.409 62.72 797.111 62.8787 796.756 63C796.401 63.112 795.991 63.168 795.524 63.168Z" fill="#A6ACBE"/>
<circle cx="721" cy="58" r="7" fill="#FF2626"/>
<path d="M36.85 46.3C35.75 46.3 34.6833 46.0917 33.65 45.675C32.6333 45.2583 31.7333 44.6667 30.95 43.9L32.65 41.925C33.2333 42.475 33.9 42.925 34.65 43.275C35.4 43.6083 36.15 43.775 36.9 43.775C37.8333 43.775 38.5417 43.5833 39.025 43.2C39.5083 42.8167 39.75 42.3083 39.75 41.675C39.75 41.3417 39.6833 41.0583 39.55 40.825C39.4333 40.5917 39.2583 40.3917 39.025 40.225C38.8083 40.0417 38.5417 39.875 38.225 39.725C37.925 39.575 37.5917 39.425 37.225 39.275L34.975 38.3C34.575 38.1333 34.175 37.925 33.775 37.675C33.3917 37.425 33.0417 37.125 32.725 36.775C32.4083 36.425 32.15 36.0167 31.95 35.55C31.7667 35.0833 31.675 34.55 31.675 33.95C31.675 33.3 31.8083 32.7 32.075 32.15C32.3583 31.5833 32.7417 31.0917 33.225 30.675C33.7083 30.2583 34.2833 29.9333 34.95 29.7C35.6333 29.4667 36.375 29.35 37.175 29.35C38.125 29.35 39.0417 29.5417 39.925 29.925C40.8083 30.2917 41.5667 30.7917 42.2 31.425L40.725 33.275C40.1917 32.8417 39.6417 32.5 39.075 32.25C38.5083 32 37.875 31.875 37.175 31.875C36.3917 31.875 35.7667 32.05 35.3 32.4C34.8333 32.7333 34.6 33.2 34.6 33.8C34.6 34.1167 34.6667 34.3917 34.8 34.625C34.95 34.8417 35.1417 35.0417 35.375 35.225C35.625 35.3917 35.9083 35.55 36.225 35.7C36.5417 35.8333 36.8667 35.9667 37.2 36.1L39.425 37.025C39.9083 37.225 40.35 37.4583 40.75 37.725C41.15 37.9917 41.4917 38.3 41.775 38.65C42.075 39 42.3083 39.4083 42.475 39.875C42.6417 40.325 42.725 40.85 42.725 41.45C42.725 42.1167 42.5917 42.7417 42.325 43.325C42.0583 43.9083 41.6667 44.425 41.15 44.875C40.65 45.3083 40.0333 45.6583 39.3 45.925C38.5833 46.175 37.7667 46.3 36.85 46.3ZM49.348 46.3C48.0314 46.3 47.073 45.8833 46.473 45.05C45.873 44.2 45.573 42.9917 45.573 41.425V33.725H48.448V41.05C48.448 42.0667 48.598 42.7833 48.898 43.2C49.198 43.6167 49.6814 43.825 50.348 43.825C50.8814 43.825 51.348 43.6917 51.748 43.425C52.1647 43.1583 52.6064 42.725 53.073 42.125V33.725H55.948V46H53.598L53.373 44.2H53.298C52.7647 44.8333 52.1814 45.3417 51.548 45.725C50.9314 46.1083 50.198 46.3 49.348 46.3ZM59.8396 50.85V33.725H62.2146L62.4146 35.025H62.5146C63.0313 34.5917 63.6063 34.2167 64.2396 33.9C64.873 33.5833 65.5313 33.425 66.2146 33.425C66.9813 33.425 67.6563 33.575 68.2396 33.875C68.8396 34.1583 69.348 34.575 69.7646 35.125C70.1813 35.675 70.498 36.3333 70.7146 37.1C70.9313 37.8667 71.0396 38.725 71.0396 39.675C71.0396 40.725 70.8896 41.6667 70.5896 42.5C70.3063 43.3167 69.923 44.0083 69.4396 44.575C68.9563 45.125 68.398 45.55 67.7646 45.85C67.1313 46.15 66.473 46.3 65.7896 46.3C65.2563 46.3 64.723 46.1833 64.1896 45.95C63.6563 45.7167 63.1396 45.3833 62.6396 44.95L62.7146 47V50.85H59.8396ZM65.1896 43.925C66.0063 43.925 66.6896 43.575 67.2396 42.875C67.7896 42.1583 68.0646 41.1 68.0646 39.7C68.0646 38.4667 67.8563 37.5083 67.4396 36.825C67.023 36.1417 66.348 35.8 65.4146 35.8C64.548 35.8 63.648 36.2583 62.7146 37.175V42.9C63.1646 43.2833 63.598 43.55 64.0146 43.7C64.4313 43.85 64.823 43.925 65.1896 43.925ZM74.201 50.85V33.725H76.576L76.776 35.025H76.876C77.3926 34.5917 77.9676 34.2167 78.601 33.9C79.2343 33.5833 79.8926 33.425 80.576 33.425C81.3426 33.425 82.0176 33.575 82.601 33.875C83.201 34.1583 83.7093 34.575 84.126 35.125C84.5426 35.675 84.8593 36.3333 85.076 37.1C85.2926 37.8667 85.401 38.725 85.401 39.675C85.401 40.725 85.251 41.6667 84.951 42.5C84.6676 43.3167 84.2843 44.0083 83.801 44.575C83.3176 45.125 82.7593 45.55 82.126 45.85C81.4926 46.15 80.8343 46.3 80.151 46.3C79.6176 46.3 79.0843 46.1833 78.551 45.95C78.0176 45.7167 77.501 45.3833 77.001 44.95L77.076 47V50.85H74.201ZM79.551 43.925C80.3676 43.925 81.051 43.575 81.601 42.875C82.151 42.1583 82.426 41.1 82.426 39.7C82.426 38.4667 82.2176 37.5083 81.801 36.825C81.3843 36.1417 80.7093 35.8 79.776 35.8C78.9093 35.8 78.0093 36.2583 77.076 37.175V42.9C77.526 43.2833 77.9593 43.55 78.376 43.7C78.7926 43.85 79.1843 43.925 79.551 43.925ZM88.5623 46V33.725H91.4373V46H88.5623ZM90.0123 31.575C89.4956 31.575 89.0706 31.425 88.7373 31.125C88.404 30.825 88.2373 30.4333 88.2373 29.95C88.2373 29.4667 88.404 29.075 88.7373 28.775C89.0706 28.4583 89.4956 28.3 90.0123 28.3C90.529 28.3 90.954 28.4583 91.2873 28.775C91.6206 29.075 91.7873 29.4667 91.7873 29.95C91.7873 30.4333 91.6206 30.825 91.2873 31.125C90.954 31.425 90.529 31.575 90.0123 31.575ZM100.605 46.3C99.7553 46.3 98.9636 46.1583 98.2303 45.875C97.4969 45.575 96.8553 45.15 96.3053 44.6C95.7553 44.05 95.3219 43.3833 95.0053 42.6C94.7053 41.8 94.5553 40.8917 94.5553 39.875C94.5553 38.875 94.7136 37.975 95.0303 37.175C95.3469 36.375 95.7636 35.7 96.2803 35.15C96.8136 34.6 97.4219 34.175 98.1053 33.875C98.7886 33.575 99.4886 33.425 100.205 33.425C101.039 33.425 101.772 33.5667 102.405 33.85C103.039 34.1333 103.564 34.5333 103.98 35.05C104.414 35.5667 104.739 36.1833 104.955 36.9C105.172 37.6167 105.28 38.4 105.28 39.25C105.28 39.5333 105.264 39.8 105.23 40.05C105.214 40.3 105.189 40.5 105.155 40.65H97.3553C97.4886 41.75 97.8719 42.6 98.5053 43.2C99.1553 43.7833 99.9803 44.075 100.98 44.075C101.514 44.075 102.005 44 102.455 43.85C102.922 43.6833 103.38 43.4583 103.83 43.175L104.805 44.975C104.222 45.3583 103.572 45.675 102.855 45.925C102.139 46.175 101.389 46.3 100.605 46.3ZM97.3303 38.7H102.78C102.78 37.75 102.572 37.0083 102.155 36.475C101.755 35.925 101.13 35.65 100.28 35.65C99.5469 35.65 98.9053 35.9083 98.3553 36.425C97.8053 36.9417 97.4636 37.7 97.3303 38.7ZM111.701 46.3C110.851 46.3 110.01 46.1417 109.176 45.825C108.36 45.4917 107.651 45.0833 107.051 44.6L108.401 42.75C108.951 43.1833 109.493 43.525 110.026 43.775C110.576 44.0083 111.168 44.125 111.801 44.125C112.468 44.125 112.96 43.9917 113.276 43.725C113.593 43.4417 113.751 43.0833 113.751 42.65C113.751 42.4 113.676 42.1833 113.526 42C113.376 41.8 113.176 41.625 112.926 41.475C112.676 41.325 112.393 41.1917 112.076 41.075C111.76 40.9417 111.443 40.8083 111.126 40.675C110.726 40.525 110.318 40.35 109.901 40.15C109.485 39.95 109.11 39.7083 108.776 39.425C108.46 39.1417 108.193 38.8167 107.976 38.45C107.776 38.0667 107.676 37.6167 107.676 37.1C107.676 36.0167 108.076 35.1333 108.876 34.45C109.676 33.7667 110.768 33.425 112.151 33.425C113.001 33.425 113.768 33.575 114.451 33.875C115.135 34.175 115.726 34.5167 116.226 34.9L114.901 36.65C114.468 36.3333 114.026 36.0833 113.576 35.9C113.143 35.7 112.685 35.6 112.201 35.6C111.585 35.6 111.126 35.7333 110.826 36C110.543 36.25 110.401 36.5667 110.401 36.95C110.401 37.2 110.468 37.4167 110.601 37.6C110.751 37.7667 110.943 37.9167 111.176 38.05C111.41 38.1833 111.676 38.3083 111.976 38.425C112.293 38.5417 112.618 38.6583 112.951 38.775C113.368 38.925 113.785 39.1 114.201 39.3C114.618 39.4833 114.993 39.7167 115.326 40C115.676 40.2833 115.951 40.6333 116.151 41.05C116.368 41.45 116.476 41.9333 116.476 42.5C116.476 43.0333 116.368 43.5333 116.151 44C115.951 44.45 115.651 44.85 115.251 45.2C114.851 45.5333 114.351 45.8 113.751 46C113.151 46.2 112.468 46.3 111.701 46.3ZM124.798 46V29.65H130.323C131.173 29.65 131.964 29.7333 132.698 29.9C133.431 30.0667 134.064 30.3417 134.598 30.725C135.131 31.0917 135.548 31.5833 135.848 32.2C136.164 32.8167 136.323 33.5833 136.323 34.5C136.323 35.75 136.023 36.7583 135.423 37.525C134.839 38.2917 134.056 38.8417 133.073 39.175L136.973 46H133.723L130.198 39.6H127.698V46H124.798ZM127.698 37.3H130.023C131.139 37.3 131.989 37.0667 132.573 36.6C133.173 36.1333 133.473 35.4333 133.473 34.5C133.473 33.55 133.173 32.8917 132.573 32.525C131.989 32.1583 131.139 31.975 130.023 31.975H127.698V37.3ZM144.598 46.3C143.748 46.3 142.957 46.1583 142.223 45.875C141.49 45.575 140.848 45.15 140.298 44.6C139.748 44.05 139.315 43.3833 138.998 42.6C138.698 41.8 138.548 40.8917 138.548 39.875C138.548 38.875 138.707 37.975 139.023 37.175C139.34 36.375 139.757 35.7 140.273 35.15C140.807 34.6 141.415 34.175 142.098 33.875C142.782 33.575 143.482 33.425 144.198 33.425C145.032 33.425 145.765 33.5667 146.398 33.85C147.032 34.1333 147.557 34.5333 147.973 35.05C148.407 35.5667 148.732 36.1833 148.948 36.9C149.165 37.6167 149.273 38.4 149.273 39.25C149.273 39.5333 149.257 39.8 149.223 40.05C149.207 40.3 149.182 40.5 149.148 40.65H141.348C141.482 41.75 141.865 42.6 142.498 43.2C143.148 43.7833 143.973 44.075 144.973 44.075C145.507 44.075 145.998 44 146.448 43.85C146.915 43.6833 147.373 43.4583 147.823 43.175L148.798 44.975C148.215 45.3583 147.565 45.675 146.848 45.925C146.132 46.175 145.382 46.3 144.598 46.3ZM141.323 38.7H146.773C146.773 37.75 146.565 37.0083 146.148 36.475C145.748 35.925 145.123 35.65 144.273 35.65C143.54 35.65 142.898 35.9083 142.348 36.425C141.798 36.9417 141.457 37.7 141.323 38.7ZM154.951 46.3C153.868 46.3 152.993 45.975 152.326 45.325C151.66 44.6583 151.326 43.7833 151.326 42.7C151.326 42.05 151.46 41.475 151.726 40.975C152.01 40.4583 152.443 40.0167 153.026 39.65C153.626 39.2833 154.376 38.975 155.276 38.725C156.193 38.475 157.285 38.2833 158.551 38.15C158.535 37.8333 158.485 37.5333 158.401 37.25C158.335 36.95 158.21 36.6917 158.026 36.475C157.86 36.2417 157.635 36.0667 157.351 35.95C157.068 35.8167 156.718 35.75 156.301 35.75C155.701 35.75 155.11 35.8667 154.526 36.1C153.96 36.3333 153.401 36.6167 152.851 36.95L151.801 35.025C152.485 34.5917 153.251 34.2167 154.101 33.9C154.951 33.5833 155.868 33.425 156.851 33.425C158.385 33.425 159.526 33.8833 160.276 34.8C161.043 35.7 161.426 37.0083 161.426 38.725V46H159.051L158.851 44.65H158.751C158.201 45.1167 157.61 45.5083 156.976 45.825C156.36 46.1417 155.685 46.3 154.951 46.3ZM155.876 44.05C156.376 44.05 156.826 43.9333 157.226 43.7C157.643 43.4667 158.085 43.1333 158.551 42.7V39.95C157.718 40.05 157.018 40.1833 156.451 40.35C155.885 40.5167 155.426 40.7083 155.076 40.925C154.726 41.125 154.476 41.3583 154.326 41.625C154.176 41.8917 154.101 42.175 154.101 42.475C154.101 43.025 154.268 43.425 154.601 43.675C154.935 43.925 155.36 44.05 155.876 44.05ZM167.917 46.3C166.884 46.3 166.159 45.9917 165.742 45.375C165.325 44.7583 165.117 43.9167 165.117 42.85V28.35H167.992V43C167.992 43.35 168.059 43.6 168.192 43.75C168.325 43.8833 168.467 43.95 168.617 43.95C168.684 43.95 168.742 43.95 168.792 43.95C168.859 43.95 168.95 43.9333 169.067 43.9L169.442 46.05C169.059 46.2167 168.55 46.3 167.917 46.3ZM176.479 46.3C175.762 46.3 175.154 46.1917 174.654 45.975C174.171 45.7583 173.771 45.4583 173.454 45.075C173.154 44.675 172.929 44.2083 172.779 43.675C172.646 43.125 172.579 42.5167 172.579 41.85V36H170.829V33.85L172.729 33.725L173.079 30.375H175.479V33.725H178.604V36H175.479V41.85C175.479 43.2833 176.054 44 177.204 44C177.421 44 177.637 43.975 177.854 43.925C178.087 43.875 178.296 43.8083 178.479 43.725L178.979 45.85C178.646 45.9667 178.262 46.0667 177.829 46.15C177.412 46.25 176.962 46.3 176.479 46.3ZM181.437 46V33.725H184.312V46H181.437ZM182.887 31.575C182.371 31.575 181.946 31.425 181.612 31.125C181.279 30.825 181.112 30.4333 181.112 29.95C181.112 29.4667 181.279 29.075 181.612 28.775C181.946 28.4583 182.371 28.3 182.887 28.3C183.404 28.3 183.829 28.4583 184.162 28.775C184.496 29.075 184.662 29.4667 184.662 29.95C184.662 30.4333 184.496 30.825 184.162 31.125C183.829 31.425 183.404 31.575 182.887 31.575ZM188.23 46V33.725H190.605L190.805 35.4H190.905C191.422 34.85 191.98 34.3833 192.58 34C193.197 33.6167 193.889 33.425 194.655 33.425C195.555 33.425 196.272 33.6167 196.805 34C197.355 34.3833 197.772 34.925 198.055 35.625C198.639 34.9917 199.247 34.4667 199.88 34.05C200.514 33.6333 201.222 33.425 202.005 33.425C203.305 33.425 204.264 33.85 204.88 34.7C205.497 35.5333 205.805 36.7333 205.805 38.3V46H202.905V38.675C202.905 37.6583 202.747 36.9417 202.43 36.525C202.13 36.1083 201.664 35.9 201.03 35.9C200.264 35.9 199.405 36.4083 198.455 37.425V46H195.58V38.675C195.58 37.6583 195.422 36.9417 195.105 36.525C194.805 36.1083 194.33 35.9 193.68 35.9C192.914 35.9 192.055 36.4083 191.105 37.425V46H188.23ZM214.8 46.3C213.95 46.3 213.158 46.1583 212.425 45.875C211.691 45.575 211.05 45.15 210.5 44.6C209.95 44.05 209.516 43.3833 209.2 42.6C208.9 41.8 208.75 40.8917 208.75 39.875C208.75 38.875 208.908 37.975 209.225 37.175C209.541 36.375 209.958 35.7 210.475 35.15C211.008 34.6 211.616 34.175 212.3 33.875C212.983 33.575 213.683 33.425 214.4 33.425C215.233 33.425 215.966 33.5667 216.6 33.85C217.233 34.1333 217.758 34.5333 218.175 35.05C218.608 35.5667 218.933 36.1833 219.15 36.9C219.366 37.6167 219.475 38.4 219.475 39.25C219.475 39.5333 219.458 39.8 219.425 40.05C219.408 40.3 219.383 40.5 219.35 40.65H211.55C211.683 41.75 212.066 42.6 212.7 43.2C213.35 43.7833 214.175 44.075 215.175 44.075C215.708 44.075 216.2 44 216.65 43.85C217.116 43.6833 217.575 43.4583 218.025 43.175L219 44.975C218.416 45.3583 217.766 45.675 217.05 45.925C216.333 46.175 215.583 46.3 214.8 46.3ZM211.525 38.7H216.975C216.975 37.75 216.766 37.0083 216.35 36.475C215.95 35.925 215.325 35.65 214.475 35.65C213.741 35.65 213.1 35.9083 212.55 36.425C212 36.9417 211.658 37.7 211.525 38.7ZM230.9 46L225.8 29.65H228.875L231.175 37.875C231.442 38.8083 231.675 39.6917 231.875 40.525C232.092 41.3583 232.342 42.25 232.625 43.2H232.725C233.009 42.25 233.25 41.3583 233.45 40.525C233.667 39.6917 233.9 38.8083 234.15 37.875L236.425 29.65H239.4L234.325 46H230.9ZM244.438 46.3C243.588 46.3 242.746 46.1417 241.913 45.825C241.096 45.4917 240.388 45.0833 239.788 44.6L241.138 42.75C241.688 43.1833 242.229 43.525 242.763 43.775C243.313 44.0083 243.904 44.125 244.538 44.125C245.204 44.125 245.696 43.9917 246.013 43.725C246.329 43.4417 246.488 43.0833 246.488 42.65C246.488 42.4 246.413 42.1833 246.263 42C246.113 41.8 245.913 41.625 245.663 41.475C245.413 41.325 245.129 41.1917 244.813 41.075C244.496 40.9417 244.179 40.8083 243.863 40.675C243.463 40.525 243.054 40.35 242.638 40.15C242.221 39.95 241.846 39.7083 241.513 39.425C241.196 39.1417 240.929 38.8167 240.713 38.45C240.513 38.0667 240.413 37.6167 240.413 37.1C240.413 36.0167 240.813 35.1333 241.613 34.45C242.413 33.7667 243.504 33.425 244.888 33.425C245.738 33.425 246.504 33.575 247.188 33.875C247.871 34.175 248.463 34.5167 248.963 34.9L247.638 36.65C247.204 36.3333 246.763 36.0833 246.313 35.9C245.879 35.7 245.421 35.6 244.938 35.6C244.321 35.6 243.863 35.7333 243.563 36C243.279 36.25 243.138 36.5667 243.138 36.95C243.138 37.2 243.204 37.4167 243.338 37.6C243.488 37.7667 243.679 37.9167 243.913 38.05C244.146 38.1833 244.413 38.3083 244.713 38.425C245.029 38.5417 245.354 38.6583 245.688 38.775C246.104 38.925 246.521 39.1 246.938 39.3C247.354 39.4833 247.729 39.7167 248.063 40C248.413 40.2833 248.688 40.6333 248.888 41.05C249.104 41.45 249.213 41.9333 249.213 42.5C249.213 43.0333 249.104 43.5333 248.888 44C248.688 44.45 248.388 44.85 247.988 45.2C247.588 45.5333 247.088 45.8 246.488 46C245.888 46.2 245.204 46.3 244.438 46.3ZM257.534 46V29.65H260.434V36.225H267.059V29.65H269.959V46H267.059V38.75H260.434V46H257.534ZM279.136 46.3C278.369 46.3 277.636 46.1583 276.936 45.875C276.236 45.5917 275.611 45.175 275.061 44.625C274.528 44.075 274.103 43.4 273.786 42.6C273.469 41.8 273.311 40.8917 273.311 39.875C273.311 38.8583 273.469 37.95 273.786 37.15C274.103 36.35 274.528 35.675 275.061 35.125C275.611 34.575 276.236 34.1583 276.936 33.875C277.636 33.575 278.369 33.425 279.136 33.425C279.903 33.425 280.636 33.575 281.336 33.875C282.053 34.1583 282.678 34.575 283.211 35.125C283.744 35.675 284.169 36.35 284.486 37.15C284.819 37.95 284.986 38.8583 284.986 39.875C284.986 40.8917 284.819 41.8 284.486 42.6C284.169 43.4 283.744 44.075 283.211 44.625C282.678 45.175 282.053 45.5917 281.336 45.875C280.636 46.1583 279.903 46.3 279.136 46.3ZM279.136 43.95C280.036 43.95 280.744 43.5833 281.261 42.85C281.778 42.1 282.036 41.1083 282.036 39.875C282.036 38.625 281.778 37.6333 281.261 36.9C280.744 36.15 280.036 35.775 279.136 35.775C278.236 35.775 277.528 36.15 277.011 36.9C276.511 37.6333 276.261 38.625 276.261 39.875C276.261 41.1083 276.511 42.1 277.011 42.85C277.528 43.5833 278.236 43.95 279.136 43.95ZM290.882 46.3C289.849 46.3 289.124 45.9917 288.707 45.375C288.29 44.7583 288.082 43.9167 288.082 42.85V28.35H290.957V43C290.957 43.35 291.024 43.6 291.157 43.75C291.29 43.8833 291.432 43.95 291.582 43.95C291.649 43.95 291.707 43.95 291.757 43.95C291.824 43.95 291.915 43.9333 292.032 43.9L292.407 46.05C292.024 46.2167 291.515 46.3 290.882 46.3ZM299.419 46.3C297.869 46.3 296.636 45.7417 295.719 44.625C294.819 43.4917 294.369 41.9083 294.369 39.875C294.369 38.875 294.511 37.975 294.794 37.175C295.094 36.375 295.486 35.7 295.969 35.15C296.452 34.6 297.002 34.175 297.619 33.875C298.252 33.575 298.902 33.425 299.569 33.425C300.269 33.425 300.861 33.55 301.344 33.8C301.827 34.0333 302.311 34.3583 302.794 34.775L302.694 32.8V28.35H305.569V46H303.194L302.994 44.675H302.894C302.444 45.125 301.919 45.5083 301.319 45.825C300.719 46.1417 300.086 46.3 299.419 46.3ZM300.119 43.925C301.036 43.925 301.894 43.4667 302.694 42.55V36.825C302.261 36.4417 301.836 36.175 301.419 36.025C301.019 35.875 300.611 35.8 300.194 35.8C299.394 35.8 298.719 36.15 298.169 36.85C297.619 37.55 297.344 38.55 297.344 39.85C297.344 41.1833 297.577 42.2 298.044 42.9C298.527 43.5833 299.219 43.925 300.119 43.925ZM309.48 46V33.725H312.355V46H309.48ZM310.93 31.575C310.414 31.575 309.989 31.425 309.655 31.125C309.322 30.825 309.155 30.4333 309.155 29.95C309.155 29.4667 309.322 29.075 309.655 28.775C309.989 28.4583 310.414 28.3 310.93 28.3C311.447 28.3 311.872 28.4583 312.205 28.775C312.539 29.075 312.705 29.4667 312.705 29.95C312.705 30.4333 312.539 30.825 312.205 31.125C311.872 31.425 311.447 31.575 310.93 31.575ZM316.273 46V33.725H318.648L318.848 35.375H318.948C319.498 34.8417 320.09 34.3833 320.723 34C321.373 33.6167 322.123 33.425 322.973 33.425C324.29 33.425 325.248 33.85 325.848 34.7C326.448 35.5333 326.748 36.7333 326.748 38.3V46H323.873V38.675C323.873 37.6583 323.723 36.9417 323.423 36.525C323.123 36.1083 322.632 35.9 321.948 35.9C321.415 35.9 320.94 36.0333 320.523 36.3C320.123 36.55 319.665 36.925 319.148 37.425V46H316.273ZM334.788 51.425C334.054 51.425 333.371 51.3583 332.738 51.225C332.121 51.0917 331.588 50.8917 331.138 50.625C330.688 50.3583 330.329 50.025 330.063 49.625C329.813 49.225 329.688 48.7583 329.688 48.225C329.688 47.7083 329.838 47.225 330.138 46.775C330.438 46.3417 330.871 45.95 331.438 45.6V45.5C331.121 45.3 330.854 45.0333 330.638 44.7C330.438 44.3667 330.337 43.95 330.337 43.45C330.337 42.9667 330.471 42.5333 330.738 42.15C331.021 41.75 331.338 41.425 331.688 41.175V41.075C331.271 40.7583 330.896 40.325 330.563 39.775C330.246 39.2083 330.088 38.5583 330.088 37.825C330.088 37.125 330.221 36.5 330.488 35.95C330.754 35.4 331.104 34.9417 331.538 34.575C331.988 34.1917 332.504 33.9083 333.088 33.725C333.671 33.525 334.288 33.425 334.938 33.425C335.271 33.425 335.588 33.4583 335.888 33.525C336.204 33.575 336.488 33.6417 336.738 33.725H341.138V35.85H338.888C339.088 36.0833 339.254 36.3833 339.388 36.75C339.521 37.1 339.588 37.4917 339.588 37.925C339.588 38.6083 339.463 39.2083 339.213 39.725C338.979 40.2417 338.654 40.675 338.238 41.025C337.821 41.375 337.329 41.6417 336.763 41.825C336.196 42.0083 335.588 42.1 334.938 42.1C334.671 42.1 334.396 42.075 334.113 42.025C333.829 41.975 333.546 41.8917 333.263 41.775C333.079 41.9417 332.929 42.1083 332.813 42.275C332.713 42.4417 332.663 42.6667 332.663 42.95C332.663 43.3 332.804 43.575 333.088 43.775C333.388 43.975 333.913 44.075 334.663 44.075H336.838C338.321 44.075 339.438 44.3167 340.188 44.8C340.954 45.2667 341.338 46.0333 341.338 47.1C341.338 47.7 341.179 48.2667 340.863 48.8C340.563 49.3333 340.129 49.7917 339.563 50.175C338.996 50.5583 338.304 50.8583 337.488 51.075C336.688 51.3083 335.788 51.425 334.788 51.425ZM334.938 40.3C335.521 40.3 336.021 40.0917 336.438 39.675C336.854 39.2417 337.063 38.625 337.063 37.825C337.063 37.0583 336.854 36.4667 336.438 36.05C336.038 35.6167 335.538 35.4 334.938 35.4C334.338 35.4 333.829 35.6083 333.413 36.025C332.996 36.4417 332.788 37.0417 332.788 37.825C332.788 38.625 332.996 39.2417 333.413 39.675C333.829 40.0917 334.338 40.3 334.938 40.3ZM335.238 49.55C336.238 49.55 337.038 49.35 337.638 48.95C338.254 48.5667 338.563 48.1083 338.563 47.575C338.563 47.0917 338.371 46.7667 337.988 46.6C337.621 46.4333 337.088 46.35 336.388 46.35H334.713C334.046 46.35 333.488 46.2917 333.038 46.175C332.404 46.6583 332.088 47.2 332.088 47.8C332.088 48.35 332.363 48.775 332.913 49.075C333.479 49.3917 334.254 49.55 335.238 49.55Z" fill="black"/>
<line x1="4.37114e-08" y1="73.5" x2="830" y2="73.5001" stroke="#EEF0F7"/>
<line x1="62" y1="280.5" x2="789" y2="280.5" stroke="#EDEFF5" stroke-dasharray="5 5"/>
<path d="M33.458 285.168C32.73 285.168 32.114 285.051 31.61 284.818C31.106 284.575 30.6767 284.277 30.322 283.922L31.246 282.62C31.5167 282.863 31.806 283.073 32.114 283.25C32.4313 283.418 32.7813 283.502 33.164 283.502C33.6213 283.502 33.9853 283.385 34.256 283.152C34.5267 282.919 34.662 282.573 34.662 282.116C34.662 281.668 34.5313 281.327 34.27 281.094C34.018 280.861 33.682 280.744 33.262 280.744C33.1313 280.744 33.0147 280.753 32.912 280.772C32.8093 280.781 32.7067 280.805 32.604 280.842C32.5107 280.879 32.408 280.926 32.296 280.982C32.1933 281.038 32.0767 281.108 31.946 281.192L31.022 280.604L31.274 276.11H36.314V277.846H33.052L32.898 279.512C33.066 279.437 33.2247 279.386 33.374 279.358C33.5327 279.321 33.7053 279.302 33.892 279.302C34.2747 279.302 34.634 279.358 34.97 279.47C35.3153 279.582 35.6187 279.75 35.88 279.974C36.1413 280.198 36.3467 280.483 36.496 280.828C36.6453 281.173 36.72 281.584 36.72 282.06C36.72 282.555 36.6313 282.993 36.454 283.376C36.2767 283.759 36.0387 284.085 35.74 284.356C35.4413 284.617 35.0913 284.818 34.69 284.958C34.298 285.098 33.8873 285.168 33.458 285.168Z" fill="#A6ACBE"/>
<line x1="62" y1="237.5" x2="789" y2="237.5" stroke="#EDEFF5" stroke-dasharray="5 5"/>
<path d="M30.98 243V241.334H32.912V236.196H31.246V234.922C31.7313 234.829 32.142 234.717 32.478 234.586C32.814 234.455 33.1407 234.297 33.458 234.11H34.97V241.334H36.636V243H30.98ZM41.2325 243.168C40.7565 243.168 40.3225 243.07 39.9305 242.874C39.5385 242.669 39.2025 242.37 38.9225 241.978C38.6518 241.586 38.4372 241.101 38.2785 240.522C38.1292 239.943 38.0545 239.276 38.0545 238.52C38.0545 237.764 38.1292 237.101 38.2785 236.532C38.4372 235.963 38.6518 235.487 38.9225 235.104C39.2025 234.712 39.5385 234.423 39.9305 234.236C40.3225 234.04 40.7565 233.942 41.2325 233.942C41.7085 233.942 42.1425 234.04 42.5345 234.236C42.9265 234.423 43.2578 234.712 43.5285 235.104C43.8085 235.487 44.0232 235.963 44.1725 236.532C44.3312 237.101 44.4105 237.764 44.4105 238.52C44.4105 239.276 44.3312 239.943 44.1725 240.522C44.0232 241.101 43.8085 241.586 43.5285 241.978C43.2578 242.37 42.9265 242.669 42.5345 242.874C42.1425 243.07 41.7085 243.168 41.2325 243.168ZM41.2325 241.572C41.4098 241.572 41.5732 241.53 41.7225 241.446C41.8718 241.353 42.0025 241.189 42.1145 240.956C42.2265 240.723 42.3105 240.41 42.3665 240.018C42.4318 239.626 42.4645 239.127 42.4645 238.52C42.4645 237.913 42.4318 237.419 42.3665 237.036C42.3105 236.644 42.2265 236.341 42.1145 236.126C42.0025 235.902 41.8718 235.748 41.7225 235.664C41.5732 235.58 41.4098 235.538 41.2325 235.538C41.0645 235.538 40.9058 235.58 40.7565 235.664C40.6072 235.748 40.4765 235.902 40.3645 236.126C40.2525 236.341 40.1638 236.644 40.0985 237.036C40.0332 237.419 40.0005 237.913 40.0005 238.52C40.0005 239.127 40.0332 239.626 40.0985 240.018C40.1638 240.41 40.2525 240.723 40.3645 240.956C40.4765 241.189 40.6072 241.353 40.7565 241.446C40.9058 241.53 41.0645 241.572 41.2325 241.572Z" fill="#A6ACBE"/>
<line x1="62" y1="195.5" x2="789" y2="195.5" stroke="#EDEFF5" stroke-dasharray="5 5"/>
<path d="M30.98 201V199.334H32.912V194.196H31.246V192.922C31.7313 192.829 32.142 192.717 32.478 192.586C32.814 192.455 33.1407 192.297 33.458 192.11H34.97V199.334H36.636V201H30.98ZM40.9945 201.168C40.2665 201.168 39.6505 201.051 39.1465 200.818C38.6425 200.575 38.2132 200.277 37.8585 199.922L38.7825 198.62C39.0532 198.863 39.3425 199.073 39.6505 199.25C39.9678 199.418 40.3178 199.502 40.7005 199.502C41.1578 199.502 41.5218 199.385 41.7925 199.152C42.0632 198.919 42.1985 198.573 42.1985 198.116C42.1985 197.668 42.0678 197.327 41.8065 197.094C41.5545 196.861 41.2185 196.744 40.7985 196.744C40.6678 196.744 40.5512 196.753 40.4485 196.772C40.3458 196.781 40.2432 196.805 40.1405 196.842C40.0472 196.879 39.9445 196.926 39.8325 196.982C39.7298 197.038 39.6132 197.108 39.4825 197.192L38.5585 196.604L38.8105 192.11H43.8505V193.846H40.5885L40.4345 195.512C40.6025 195.437 40.7612 195.386 40.9105 195.358C41.0692 195.321 41.2418 195.302 41.4285 195.302C41.8112 195.302 42.1705 195.358 42.5065 195.47C42.8518 195.582 43.1552 195.75 43.4165 195.974C43.6778 196.198 43.8832 196.483 44.0325 196.828C44.1818 197.173 44.2565 197.584 44.2565 198.06C44.2565 198.555 44.1678 198.993 43.9905 199.376C43.8132 199.759 43.5752 200.085 43.2765 200.356C42.9778 200.617 42.6278 200.818 42.2265 200.958C41.8345 201.098 41.4238 201.168 40.9945 201.168Z" fill="#A6ACBE"/>
<line x1="62" y1="153.5" x2="789" y2="153.5" stroke="#EDEFF5" stroke-dasharray="5 5"/>
<path d="M30.518 159V157.824C31.0873 157.292 31.6053 156.797 32.072 156.34C32.548 155.873 32.954 155.439 33.29 155.038C33.6353 154.627 33.9013 154.249 34.088 153.904C34.284 153.549 34.382 153.213 34.382 152.896C34.382 152.457 34.27 152.126 34.046 151.902C33.822 151.669 33.514 151.552 33.122 151.552C32.7953 151.552 32.506 151.645 32.254 151.832C32.002 152.009 31.764 152.219 31.54 152.462L30.42 151.356C30.8587 150.889 31.3067 150.539 31.764 150.306C32.2213 150.063 32.7673 149.942 33.402 149.942C33.8407 149.942 34.2373 150.012 34.592 150.152C34.956 150.283 35.2687 150.474 35.53 150.726C35.7913 150.969 35.992 151.263 36.132 151.608C36.272 151.953 36.342 152.341 36.342 152.77C36.342 153.143 36.2627 153.526 36.104 153.918C35.9453 154.301 35.7307 154.688 35.46 155.08C35.1987 155.463 34.8953 155.85 34.55 156.242C34.214 156.625 33.864 157.003 33.5 157.376C33.724 157.348 33.9713 157.325 34.242 157.306C34.522 157.278 34.7693 157.264 34.984 157.264H36.776V159H30.518ZM41.2325 159.168C40.7565 159.168 40.3225 159.07 39.9305 158.874C39.5385 158.669 39.2025 158.37 38.9225 157.978C38.6518 157.586 38.4372 157.101 38.2785 156.522C38.1292 155.943 38.0545 155.276 38.0545 154.52C38.0545 153.764 38.1292 153.101 38.2785 152.532C38.4372 151.963 38.6518 151.487 38.9225 151.104C39.2025 150.712 39.5385 150.423 39.9305 150.236C40.3225 150.04 40.7565 149.942 41.2325 149.942C41.7085 149.942 42.1425 150.04 42.5345 150.236C42.9265 150.423 43.2578 150.712 43.5285 151.104C43.8085 151.487 44.0232 151.963 44.1725 152.532C44.3312 153.101 44.4105 153.764 44.4105 154.52C44.4105 155.276 44.3312 155.943 44.1725 156.522C44.0232 157.101 43.8085 157.586 43.5285 157.978C43.2578 158.37 42.9265 158.669 42.5345 158.874C42.1425 159.07 41.7085 159.168 41.2325 159.168ZM41.2325 157.572C41.4098 157.572 41.5732 157.53 41.7225 157.446C41.8718 157.353 42.0025 157.189 42.1145 156.956C42.2265 156.723 42.3105 156.41 42.3665 156.018C42.4318 155.626 42.4645 155.127 42.4645 154.52C42.4645 153.913 42.4318 153.419 42.3665 153.036C42.3105 152.644 42.2265 152.341 42.1145 152.126C42.0025 151.902 41.8718 151.748 41.7225 151.664C41.5732 151.58 41.4098 151.538 41.2325 151.538C41.0645 151.538 40.9058 151.58 40.7565 151.664C40.6072 151.748 40.4765 151.902 40.3645 152.126C40.2525 152.341 40.1638 152.644 40.0985 153.036C40.0332 153.419 40.0005 153.913 40.0005 154.52C40.0005 155.127 40.0332 155.626 40.0985 156.018C40.1638 156.41 40.2525 156.723 40.3645 156.956C40.4765 157.189 40.6072 157.353 40.7565 157.446C40.9058 157.53 41.0645 157.572 41.2325 157.572Z" fill="#A6ACBE"/>
<line x1="62" y1="111.5" x2="789" y2="111.5" stroke="#EDEFF5" stroke-dasharray="5 5"/>
<path d="M30.518 117V115.824C31.0873 115.292 31.6053 114.797 32.072 114.34C32.548 113.873 32.954 113.439 33.29 113.038C33.6353 112.627 33.9013 112.249 34.088 111.904C34.284 111.549 34.382 111.213 34.382 110.896C34.382 110.457 34.27 110.126 34.046 109.902C33.822 109.669 33.514 109.552 33.122 109.552C32.7953 109.552 32.506 109.645 32.254 109.832C32.002 110.009 31.764 110.219 31.54 110.462L30.42 109.356C30.8587 108.889 31.3067 108.539 31.764 108.306C32.2213 108.063 32.7673 107.942 33.402 107.942C33.8407 107.942 34.2373 108.012 34.592 108.152C34.956 108.283 35.2687 108.474 35.53 108.726C35.7913 108.969 35.992 109.263 36.132 109.608C36.272 109.953 36.342 110.341 36.342 110.77C36.342 111.143 36.2627 111.526 36.104 111.918C35.9453 112.301 35.7307 112.688 35.46 113.08C35.1987 113.463 34.8953 113.85 34.55 114.242C34.214 114.625 33.864 115.003 33.5 115.376C33.724 115.348 33.9713 115.325 34.242 115.306C34.522 115.278 34.7693 115.264 34.984 115.264H36.776V117H30.518ZM40.9945 117.168C40.2665 117.168 39.6505 117.051 39.1465 116.818C38.6425 116.575 38.2132 116.277 37.8585 115.922L38.7825 114.62C39.0532 114.863 39.3425 115.073 39.6505 115.25C39.9678 115.418 40.3178 115.502 40.7005 115.502C41.1578 115.502 41.5218 115.385 41.7925 115.152C42.0632 114.919 42.1985 114.573 42.1985 114.116C42.1985 113.668 42.0678 113.327 41.8065 113.094C41.5545 112.861 41.2185 112.744 40.7985 112.744C40.6678 112.744 40.5512 112.753 40.4485 112.772C40.3458 112.781 40.2432 112.805 40.1405 112.842C40.0472 112.879 39.9445 112.926 39.8325 112.982C39.7298 113.038 39.6132 113.108 39.4825 113.192L38.5585 112.604L38.8105 108.11H43.8505V109.846H40.5885L40.4345 111.512C40.6025 111.437 40.7612 111.386 40.9105 111.358C41.0692 111.321 41.2418 111.302 41.4285 111.302C41.8112 111.302 42.1705 111.358 42.5065 111.47C42.8518 111.582 43.1552 111.75 43.4165 111.974C43.6778 112.198 43.8832 112.483 44.0325 112.828C44.1818 113.173 44.2565 113.584 44.2565 114.06C44.2565 114.555 44.1678 114.993 43.9905 115.376C43.8132 115.759 43.5752 116.085 43.2765 116.356C42.9778 116.617 42.6278 116.818 42.2265 116.958C41.8345 117.098 41.4238 117.168 40.9945 117.168Z" fill="#A6ACBE"/>
<path d="M81.078 342V332.872H84.214C84.718 332.872 85.1893 332.923 85.628 333.026C86.0667 333.119 86.4493 333.283 86.776 333.516C87.1027 333.74 87.3593 334.043 87.546 334.426C87.742 334.799 87.84 335.261 87.84 335.812C87.84 336.344 87.742 336.806 87.546 337.198C87.3593 337.59 87.1027 337.912 86.776 338.164C86.4493 338.416 86.0713 338.603 85.642 338.724C85.2127 338.845 84.7553 338.906 84.27 338.906H83.136V342H81.078ZM83.136 337.268H84.144C85.264 337.268 85.824 336.783 85.824 335.812C85.824 335.336 85.6747 335 85.376 334.804C85.0773 334.608 84.648 334.51 84.088 334.51H83.136V337.268ZM89.5578 342V332.872H92.6938C93.1978 332.872 93.6692 332.923 94.1078 333.026C94.5465 333.119 94.9292 333.283 95.2558 333.516C95.5825 333.74 95.8392 334.043 96.0258 334.426C96.2218 334.799 96.3198 335.261 96.3198 335.812C96.3198 336.344 96.2218 336.806 96.0258 337.198C95.8392 337.59 95.5825 337.912 95.2558 338.164C94.9292 338.416 94.5512 338.603 94.1218 338.724C93.6925 338.845 93.2352 338.906 92.7498 338.906H91.6158V342H89.5578ZM91.6158 337.268H92.6238C93.7438 337.268 94.3038 336.783 94.3038 335.812C94.3038 335.336 94.1545 335 93.8558 334.804C93.5572 334.608 93.1278 334.51 92.5678 334.51H91.6158V337.268ZM98.0377 342V332.872H103.75V334.608H100.096V336.442H103.204V338.164H100.096V340.264H103.89V342H98.0377Z" fill="#A6ACBE"/>
<rect x="85" y="161" width="5" height="153" rx="2.5" fill="#90EE90"/>
<rect x="98" y="185" width="5" height="129" rx="2.5" fill="#FB654E"/>
<path d="M151.078 342V332.872H154.214C154.718 332.872 155.189 332.923 155.628 333.026C156.067 333.119 156.449 333.283 156.776 333.516C157.103 333.74 157.359 334.043 157.546 334.426C157.742 334.799 157.84 335.261 157.84 335.812C157.84 336.344 157.742 336.806 157.546 337.198C157.359 337.59 157.103 337.912 156.776 338.164C156.449 338.416 156.071 338.603 155.642 338.724C155.213 338.845 154.755 338.906 154.27 338.906H153.136V342H151.078ZM153.136 337.268H154.144C155.264 337.268 155.824 336.783 155.824 335.812C155.824 335.336 155.675 335 155.376 334.804C155.077 334.608 154.648 334.51 154.088 334.51H153.136V337.268ZM159.558 342V332.872H162.694C163.198 332.872 163.669 332.923 164.108 333.026C164.547 333.119 164.929 333.283 165.256 333.516C165.583 333.74 165.839 334.043 166.026 334.426C166.222 334.799 166.32 335.261 166.32 335.812C166.32 336.344 166.222 336.806 166.026 337.198C165.839 337.59 165.583 337.912 165.256 338.164C164.929 338.416 164.551 338.603 164.122 338.724C163.693 338.845 163.235 338.906 162.75 338.906H161.616V342H159.558ZM161.616 337.268H162.624C163.744 337.268 164.304 336.783 164.304 335.812C164.304 335.336 164.155 335 163.856 334.804C163.557 334.608 163.128 334.51 162.568 334.51H161.616V337.268ZM168.038 342V332.872H173.75V334.608H170.096V336.442H173.204V338.164H170.096V340.264H173.89V342H168.038Z" fill="#A6ACBE"/>
<rect x="153" y="196" width="5" height="118" rx="2.5" fill="#90EE90"/>
<rect x="166" y="259" width="5" height="55" rx="2.5" fill="#FF2626"/>
<path d="M219.078 342V332.872H222.214C222.718 332.872 223.189 332.923 223.628 333.026C224.067 333.119 224.449 333.283 224.776 333.516C225.103 333.74 225.359 334.043 225.546 334.426C225.742 334.799 225.84 335.261 225.84 335.812C225.84 336.344 225.742 336.806 225.546 337.198C225.359 337.59 225.103 337.912 224.776 338.164C224.449 338.416 224.071 338.603 223.642 338.724C223.213 338.845 222.755 338.906 222.27 338.906H221.136V342H219.078ZM221.136 337.268H222.144C223.264 337.268 223.824 336.783 223.824 335.812C223.824 335.336 223.675 335 223.376 334.804C223.077 334.608 222.648 334.51 222.088 334.51H221.136V337.268ZM227.558 342V332.872H230.694C231.198 332.872 231.669 332.923 232.108 333.026C232.547 333.119 232.929 333.283 233.256 333.516C233.583 333.74 233.839 334.043 234.026 334.426C234.222 334.799 234.32 335.261 234.32 335.812C234.32 336.344 234.222 336.806 234.026 337.198C233.839 337.59 233.583 337.912 233.256 338.164C232.929 338.416 232.551 338.603 232.122 338.724C231.693 338.845 231.235 338.906 230.75 338.906H229.616V342H227.558ZM229.616 337.268H230.624C231.744 337.268 232.304 336.783 232.304 335.812C232.304 335.336 232.155 335 231.856 334.804C231.557 334.608 231.128 334.51 230.568 334.51H229.616V337.268ZM236.038 342V332.872H241.75V334.608H238.096V336.442H241.204V338.164H238.096V340.264H241.89V342H236.038Z" fill="#A6ACBE"/>
<rect x="221" y="119" width="5" height="195" rx="2.5" fill="#90EE90"/>
<rect x="234" y="206" width="5" height="108" rx="2.5" fill="#FF2626"/>
<path d="M288.078 342V332.872H291.214C291.718 332.872 292.189 332.923 292.628 333.026C293.067 333.119 293.449 333.283 293.776 333.516C294.103 333.74 294.359 334.043 294.546 334.426C294.742 334.799 294.84 335.261 294.84 335.812C294.84 336.344 294.742 336.806 294.546 337.198C294.359 337.59 294.103 337.912 293.776 338.164C293.449 338.416 293.071 338.603 292.642 338.724C292.213 338.845 291.755 338.906 291.27 338.906H290.136V342H288.078ZM290.136 337.268H291.144C292.264 337.268 292.824 336.783 292.824 335.812C292.824 335.336 292.675 335 292.376 334.804C292.077 334.608 291.648 334.51 291.088 334.51H290.136V337.268ZM296.558 342V332.872H299.694C300.198 332.872 300.669 332.923 301.108 333.026C301.547 333.119 301.929 333.283 302.256 333.516C302.583 333.74 302.839 334.043 303.026 334.426C303.222 334.799 303.32 335.261 303.32 335.812C303.32 336.344 303.222 336.806 303.026 337.198C302.839 337.59 302.583 337.912 302.256 338.164C301.929 338.416 301.551 338.603 301.122 338.724C300.693 338.845 300.235 338.906 299.75 338.906H298.616V342H296.558ZM298.616 337.268H299.624C300.744 337.268 301.304 336.783 301.304 335.812C301.304 335.336 301.155 335 300.856 334.804C300.557 334.608 300.128 334.51 299.568 334.51H298.616V337.268ZM305.038 342V332.872H310.75V334.608H307.096V336.442H310.204V338.164H307.096V340.264H310.89V342H305.038Z" fill="#A6ACBE"/>
<rect x="289" y="250" width="5" height="64" rx="2.5" fill="#90EE90"/>
<rect x="302" y="259" width="5" height="55" rx="2.5" fill="#FF2626"/>
<path d="M353.078 342V332.872H356.214C356.718 332.872 357.189 332.923 357.628 333.026C358.067 333.119 358.449 333.283 358.776 333.516C359.103 333.74 359.359 334.043 359.546 334.426C359.742 334.799 359.84 335.261 359.84 335.812C359.84 336.344 359.742 336.806 359.546 337.198C359.359 337.59 359.103 337.912 358.776 338.164C358.449 338.416 358.071 338.603 357.642 338.724C357.213 338.845 356.755 338.906 356.27 338.906H355.136V342H353.078ZM355.136 337.268H356.144C357.264 337.268 357.824 336.783 357.824 335.812C357.824 335.336 357.675 335 357.376 334.804C357.077 334.608 356.648 334.51 356.088 334.51H355.136V337.268ZM361.558 342V332.872H364.694C365.198 332.872 365.669 332.923 366.108 333.026C366.547 333.119 366.929 333.283 367.256 333.516C367.583 333.74 367.839 334.043 368.026 334.426C368.222 334.799 368.32 335.261 368.32 335.812C368.32 336.344 368.222 336.806 368.026 337.198C367.839 337.59 367.583 337.912 367.256 338.164C366.929 338.416 366.551 338.603 366.122 338.724C365.693 338.845 365.235 338.906 364.75 338.906H363.616V342H361.558ZM363.616 337.268H364.624C365.744 337.268 366.304 336.783 366.304 335.812C366.304 335.336 366.155 335 365.856 334.804C365.557 334.608 365.128 334.51 364.568 334.51H363.616V337.268ZM370.038 342V332.872H375.75V334.608H372.096V336.442H375.204V338.164H372.096V340.264H375.89V342H370.038Z" fill="#A6ACBE"/>
<rect x="357" y="226" width="5" height="88" rx="2.5" fill="#90EE90"/>
<rect x="370" y="259" width="5" height="55" rx="2.5" fill="#FF2626"/>
<path d="M423.078 342V332.872H426.214C426.718 332.872 427.189 332.923 427.628 333.026C428.067 333.119 428.449 333.283 428.776 333.516C429.103 333.74 429.359 334.043 429.546 334.426C429.742 334.799 429.84 335.261 429.84 335.812C429.84 336.344 429.742 336.806 429.546 337.198C429.359 337.59 429.103 337.912 428.776 338.164C428.449 338.416 428.071 338.603 427.642 338.724C427.213 338.845 426.755 338.906 426.27 338.906H425.136V342H423.078ZM425.136 337.268H426.144C427.264 337.268 427.824 336.783 427.824 335.812C427.824 335.336 427.675 335 427.376 334.804C427.077 334.608 426.648 334.51 426.088 334.51H425.136V337.268ZM431.558 342V332.872H434.694C435.198 332.872 435.669 332.923 436.108 333.026C436.547 333.119 436.929 333.283 437.256 333.516C437.583 333.74 437.839 334.043 438.026 334.426C438.222 334.799 438.32 335.261 438.32 335.812C438.32 336.344 438.222 336.806 438.026 337.198C437.839 337.59 437.583 337.912 437.256 338.164C436.929 338.416 436.551 338.603 436.122 338.724C435.693 338.845 435.235 338.906 434.75 338.906H433.616V342H431.558ZM433.616 337.268H434.624C435.744 337.268 436.304 336.783 436.304 335.812C436.304 335.336 436.155 335 435.856 334.804C435.557 334.608 435.128 334.51 434.568 334.51H433.616V337.268ZM440.038 342V332.872H445.75V334.608H442.096V336.442H445.204V338.164H442.096V340.264H445.89V342H440.038Z" fill="#A6ACBE"/>
<rect x="425" y="238" width="5" height="76" rx="2.5" fill="#90EE90"/>
<rect x="438" y="282" width="5" height="32" rx="2.5" fill="#FF2626"/>
<path d="M493.078 342V332.872H496.214C496.718 332.872 497.189 332.923 497.628 333.026C498.067 333.119 498.449 333.283 498.776 333.516C499.103 333.74 499.359 334.043 499.546 334.426C499.742 334.799 499.84 335.261 499.84 335.812C499.84 336.344 499.742 336.806 499.546 337.198C499.359 337.59 499.103 337.912 498.776 338.164C498.449 338.416 498.071 338.603 497.642 338.724C497.213 338.845 496.755 338.906 496.27 338.906H495.136V342H493.078ZM495.136 337.268H496.144C497.264 337.268 497.824 336.783 497.824 335.812C497.824 335.336 497.675 335 497.376 334.804C497.077 334.608 496.648 334.51 496.088 334.51H495.136V337.268ZM501.558 342V332.872H504.694C505.198 332.872 505.669 332.923 506.108 333.026C506.547 333.119 506.929 333.283 507.256 333.516C507.583 333.74 507.839 334.043 508.026 334.426C508.222 334.799 508.32 335.261 508.32 335.812C508.32 336.344 508.222 336.806 508.026 337.198C507.839 337.59 507.583 337.912 507.256 338.164C506.929 338.416 506.551 338.603 506.122 338.724C505.693 338.845 505.235 338.906 504.75 338.906H503.616V342H501.558ZM503.616 337.268H504.624C505.744 337.268 506.304 336.783 506.304 335.812C506.304 335.336 506.155 335 505.856 334.804C505.557 334.608 505.128 334.51 504.568 334.51H503.616V337.268ZM510.038 342V332.872H515.75V334.608H512.096V336.442H515.204V338.164H512.096V340.264H515.89V342H510.038Z" fill="#A6ACBE"/>
<rect x="493" y="171" width="5" height="143" rx="2.5" fill="#90EE90"/>
<rect x="506" y="193" width="5" height="121" rx="2.5" fill="#FF2626"/>
<path d="M558.078 342V332.872H561.214C561.718 332.872 562.189 332.923 562.628 333.026C563.067 333.119 563.449 333.283 563.776 333.516C564.103 333.74 564.359 334.043 564.546 334.426C564.742 334.799 564.84 335.261 564.84 335.812C564.84 336.344 564.742 336.806 564.546 337.198C564.359 337.59 564.103 337.912 563.776 338.164C563.449 338.416 563.071 338.603 562.642 338.724C562.213 338.845 561.755 338.906 561.27 338.906H560.136V342H558.078ZM560.136 337.268H561.144C562.264 337.268 562.824 336.783 562.824 335.812C562.824 335.336 562.675 335 562.376 334.804C562.077 334.608 561.648 334.51 561.088 334.51H560.136V337.268ZM566.558 342V332.872H569.694C570.198 332.872 570.669 332.923 571.108 333.026C571.547 333.119 571.929 333.283 572.256 333.516C572.583 333.74 572.839 334.043 573.026 334.426C573.222 334.799 573.32 335.261 573.32 335.812C573.32 336.344 573.222 336.806 573.026 337.198C572.839 337.59 572.583 337.912 572.256 338.164C571.929 338.416 571.551 338.603 571.122 338.724C570.693 338.845 570.235 338.906 569.75 338.906H568.616V342H566.558ZM568.616 337.268H569.624C570.744 337.268 571.304 336.783 571.304 335.812C571.304 335.336 571.155 335 570.856 334.804C570.557 334.608 570.128 334.51 569.568 334.51H568.616V337.268ZM575.038 342V332.872H580.75V334.608H577.096V336.442H580.204V338.164H577.096V340.264H580.89V342H575.038Z" fill="#A6ACBE"/>
<rect x="561" y="161" width="5" height="153" rx="2.5" fill="#90EE90"/>
<rect x="574" y="217" width="5" height="97" rx="2.5" fill="#FF2626"/>
<path d="M627.078 342V332.872H630.214C630.718 332.872 631.189 332.923 631.628 333.026C632.067 333.119 632.449 333.283 632.776 333.516C633.103 333.74 633.359 334.043 633.546 334.426C633.742 334.799 633.84 335.261 633.84 335.812C633.84 336.344 633.742 336.806 633.546 337.198C633.359 337.59 633.103 337.912 632.776 338.164C632.449 338.416 632.071 338.603 631.642 338.724C631.213 338.845 630.755 338.906 630.27 338.906H629.136V342H627.078ZM629.136 337.268H630.144C631.264 337.268 631.824 336.783 631.824 335.812C631.824 335.336 631.675 335 631.376 334.804C631.077 334.608 630.648 334.51 630.088 334.51H629.136V337.268ZM635.558 342V332.872H638.694C639.198 332.872 639.669 332.923 640.108 333.026C640.547 333.119 640.929 333.283 641.256 333.516C641.583 333.74 641.839 334.043 642.026 334.426C642.222 334.799 642.32 335.261 642.32 335.812C642.32 336.344 642.222 336.806 642.026 337.198C641.839 337.59 641.583 337.912 641.256 338.164C640.929 338.416 640.551 338.603 640.122 338.724C639.693 338.845 639.235 338.906 638.75 338.906H637.616V342H635.558ZM637.616 337.268H638.624C639.744 337.268 640.304 336.783 640.304 335.812C640.304 335.336 640.155 335 639.856 334.804C639.557 334.608 639.128 334.51 638.568 334.51H637.616V337.268ZM644.038 342V332.872H649.75V334.608H646.096V336.442H649.204V338.164H646.096V340.264H649.89V342H644.038Z" fill="#A6ACBE"/>
<rect x="629" y="217" width="5" height="97" rx="2.5" fill="#90EE90"/>
<rect x="642" y="226" width="5" height="88" rx="2.5" fill="#FF2626"/>
<path d="M694.078 342V332.872H697.214C697.718 332.872 698.189 332.923 698.628 333.026C699.067 333.119 699.449 333.283 699.776 333.516C700.103 333.74 700.359 334.043 700.546 334.426C700.742 334.799 700.84 335.261 700.84 335.812C700.84 336.344 700.742 336.806 700.546 337.198C700.359 337.59 700.103 337.912 699.776 338.164C699.449 338.416 699.071 338.603 698.642 338.724C698.213 338.845 697.755 338.906 697.27 338.906H696.136V342H694.078ZM696.136 337.268H697.144C698.264 337.268 698.824 336.783 698.824 335.812C698.824 335.336 698.675 335 698.376 334.804C698.077 334.608 697.648 334.51 697.088 334.51H696.136V337.268ZM702.558 342V332.872H705.694C706.198 332.872 706.669 332.923 707.108 333.026C707.547 333.119 707.929 333.283 708.256 333.516C708.583 333.74 708.839 334.043 709.026 334.426C709.222 334.799 709.32 335.261 709.32 335.812C709.32 336.344 709.222 336.806 709.026 337.198C708.839 337.59 708.583 337.912 708.256 338.164C707.929 338.416 707.551 338.603 707.122 338.724C706.693 338.845 706.235 338.906 705.75 338.906H704.616V342H702.558ZM704.616 337.268H705.624C706.744 337.268 707.304 336.783 707.304 335.812C707.304 335.336 707.155 335 706.856 334.804C706.557 334.608 706.128 334.51 705.568 334.51H704.616V337.268ZM711.038 342V332.872H716.75V334.608H713.096V336.442H716.204V338.164H713.096V340.264H716.89V342H711.038Z" fill="#A6ACBE"/>
<rect x="697" y="178" width="5" height="136" rx="2.5" fill="#90EE90"/>
<rect x="710" y="250" width="5" height="64" rx="2.5" fill="#FF2626"/>
<path d="M762.078 342V332.872H765.214C765.718 332.872 766.189 332.923 766.628 333.026C767.067 333.119 767.449 333.283 767.776 333.516C768.103 333.74 768.359 334.043 768.546 334.426C768.742 334.799 768.84 335.261 768.84 335.812C768.84 336.344 768.742 336.806 768.546 337.198C768.359 337.59 768.103 337.912 767.776 338.164C767.449 338.416 767.071 338.603 766.642 338.724C766.213 338.845 765.755 338.906 765.27 338.906H764.136V342H762.078ZM764.136 337.268H765.144C766.264 337.268 766.824 336.783 766.824 335.812C766.824 335.336 766.675 335 766.376 334.804C766.077 334.608 765.648 334.51 765.088 334.51H764.136V337.268ZM770.558 342V332.872H773.694C774.198 332.872 774.669 332.923 775.108 333.026C775.547 333.119 775.929 333.283 776.256 333.516C776.583 333.74 776.839 334.043 777.026 334.426C777.222 334.799 777.32 335.261 777.32 335.812C777.32 336.344 777.222 336.806 777.026 337.198C776.839 337.59 776.583 337.912 776.256 338.164C775.929 338.416 775.551 338.603 775.122 338.724C774.693 338.845 774.235 338.906 773.75 338.906H772.616V342H770.558ZM772.616 337.268H773.624C774.744 337.268 775.304 336.783 775.304 335.812C775.304 335.336 775.155 335 774.856 334.804C774.557 334.608 774.128 334.51 773.568 334.51H772.616V337.268ZM779.038 342V332.872H784.75V334.608H781.096V336.442H784.204V338.164H781.096V340.264H784.89V342H779.038Z" fill="#A6ACBE"/>
<rect x="765" y="125" width="5" height="189" rx="2.5" fill="#90EE90"/>
<rect x="778" y="200" width="5" height="114" rx="2.5" fill="#FF2626"/>
</svg>
