<svg width="36" height="36" viewBox="0 0 36 36" fill="none" xmlns="http://www.w3.org/2000/svg">
<path d="M3.73673 16.6984L16.6984 3.73673C18.7643 1.67612 21.563 0.518921 24.4809 0.518921C27.3988 0.518921 30.1975 1.67612 32.2634 3.73673C36.5534 8.02673 36.5534 14.9934 32.2634 19.3017L19.3017 32.2634C14.9934 36.5534 8.02673 36.5534 3.73673 32.2634C1.67612 30.1975 0.518921 27.3988 0.518921 24.4809C0.518921 21.563 1.67612 18.7643 3.73673 16.6984V16.6984ZM6.34006 19.3017C5.42568 20.2079 4.76757 21.34 4.43267 22.583C4.09777 23.826 4.09802 25.1355 4.4334 26.3784L15.4151 15.4151L23.1884 23.1884L29.6601 16.6984C30.344 16.0204 30.8868 15.2136 31.2573 14.3247C31.6277 13.4358 31.8185 12.4823 31.8185 11.5192C31.8185 10.5562 31.6277 9.6027 31.2573 8.71377C30.8868 7.82484 30.344 7.01808 29.6601 6.34006C28.982 5.65616 28.1753 5.11331 27.2864 4.74285C26.3974 4.37239 25.4439 4.18166 24.4809 4.18166C23.5179 4.18166 22.5644 4.37239 21.6754 4.74285C20.7865 5.11331 19.9797 5.65616 19.3017 6.34006L6.34006 19.3017V19.3017Z" fill="black"/>
</svg>
